<svg width="252" height="95" viewBox="0 0 252 95" fill="none" xmlns="http://www.w3.org/2000/svg">
<path d="M49.14 21.3C50.4467 21.3 51.4967 21.72 52.29 22.56C53.0833 23.3533 53.48 24.4267 53.48 25.78V67.22C53.48 68.5267 53.1067 69.5533 52.36 70.3C51.6133 71.0467 50.6333 71.42 49.42 71.42C48.2067 71.42 47.25 71.0467 46.55 70.3C45.85 69.5533 45.5 68.5267 45.5 67.22V38.38L33.6 60.92C33.04 61.9467 32.4333 62.7167 31.78 63.23C31.1267 63.6967 30.3567 63.93 29.47 63.93C28.5833 63.93 27.8133 63.6967 27.16 63.23C26.5067 62.7633 25.9 61.9933 25.34 60.92L13.37 38.73V67.22C13.37 68.48 12.9967 69.5067 12.25 70.3C11.55 71.0467 10.5933 71.42 9.38 71.42C8.16667 71.42 7.21 71.0467 6.51 70.3C5.81 69.5533 5.46 68.5267 5.46 67.22V25.78C5.46 24.4267 5.83333 23.3533 6.58 22.56C7.37333 21.72 8.42333 21.3 9.73 21.3C11.55 21.3 12.9733 22.3033 14 24.31L29.54 53.92L45.01 24.31C46.0367 22.3033 47.4133 21.3 49.14 21.3ZM79.0174 71.56C75.5174 71.56 72.4374 70.8367 69.7774 69.39C67.1641 67.9433 65.1341 65.8667 63.6874 63.16C62.2408 60.4533 61.5174 57.3033 61.5174 53.71C61.5174 50.1167 62.2408 46.99 63.6874 44.33C65.1341 41.6233 67.1641 39.5467 69.7774 38.1C72.4374 36.6533 75.5174 35.93 79.0174 35.93C82.5174 35.93 85.5741 36.6533 88.1874 38.1C90.8474 39.5467 92.8774 41.6233 94.2774 44.33C95.7241 46.99 96.4474 50.1167 96.4474 53.71C96.4474 57.3033 95.7241 60.4533 94.2774 63.16C92.8774 65.8667 90.8474 67.9433 88.1874 69.39C85.5741 70.8367 82.5174 71.56 79.0174 71.56ZM78.9474 64.77C81.7941 64.77 83.9641 63.8367 85.4574 61.97C86.9508 60.1033 87.6974 57.35 87.6974 53.71C87.6974 50.1167 86.9508 47.3867 85.4574 45.52C83.9641 43.6067 81.8174 42.65 79.0174 42.65C76.2174 42.65 74.0474 43.6067 72.5074 45.52C71.0141 47.3867 70.2674 50.1167 70.2674 53.71C70.2674 57.35 71.0141 60.1033 72.5074 61.97C74.0008 63.8367 76.1474 64.77 78.9474 64.77ZM187.703 36.07C189.056 36.07 190.129 36.4433 190.923 37.19C191.716 37.9367 192.113 38.94 192.113 40.2V67.36C192.113 68.5733 191.693 69.5533 190.853 70.3C190.059 71.0467 189.009 71.42 187.703 71.42C186.443 71.42 185.439 71.07 184.693 70.37C183.946 69.67 183.573 68.7133 183.573 67.5V65.75C182.499 67.6167 181.053 69.0633 179.233 70.09C177.413 71.07 175.359 71.56 173.073 71.56C164.673 71.56 160.473 66.8467 160.473 57.42V40.2C160.473 38.94 160.869 37.9367 161.663 37.19C162.456 36.4433 163.506 36.07 164.813 36.07C166.166 36.07 167.239 36.4433 168.033 37.19C168.826 37.9367 169.223 38.94 169.223 40.2V57.49C169.223 59.9167 169.713 61.7133 170.693 62.88C171.673 64.0467 173.213 64.63 175.313 64.63C177.739 64.63 179.676 63.8367 181.123 62.25C182.616 60.6167 183.363 58.47 183.363 55.81V40.2C183.363 38.94 183.759 37.9367 184.553 37.19C185.346 36.4433 186.396 36.07 187.703 36.07ZM228.31 61.62C229.103 61.62 229.733 61.9233 230.2 62.53C230.713 63.1367 230.97 63.9533 230.97 64.98C230.97 66.4267 230.107 67.64 228.38 68.62C226.793 69.5067 224.997 70.23 222.99 70.79C220.983 71.3033 219.07 71.56 217.25 71.56C211.743 71.56 207.38 69.9733 204.16 66.8C200.94 63.6267 199.33 59.2867 199.33 53.78C199.33 50.28 200.03 47.1767 201.43 44.47C202.83 41.7633 204.79 39.6633 207.31 38.17C209.877 36.6767 212.77 35.93 215.99 35.93C219.07 35.93 221.753 36.6067 224.04 37.96C226.327 39.3133 228.1 41.2267 229.36 43.7C230.62 46.1733 231.25 49.09 231.25 52.45C231.25 54.4567 230.363 55.46 228.59 55.46H207.94C208.22 58.68 209.13 61.06 210.67 62.6C212.21 64.0933 214.45 64.84 217.39 64.84C218.883 64.84 220.19 64.6533 221.31 64.28C222.477 63.9067 223.783 63.3933 225.23 62.74C226.63 61.9933 227.657 61.62 228.31 61.62ZM216.2 42.09C213.82 42.09 211.907 42.8367 210.46 44.33C209.06 45.8233 208.22 47.97 207.94 50.77H223.76C223.667 47.9233 222.967 45.7767 221.66 44.33C220.353 42.8367 218.533 42.09 216.2 42.09ZM242.537 71.42C241.044 71.42 239.807 70.93 238.827 69.95C237.847 68.9233 237.357 67.6633 237.357 66.17C237.357 64.6767 237.847 63.44 238.827 62.46C239.807 61.4333 241.044 60.92 242.537 60.92C244.031 60.92 245.267 61.4333 246.247 62.46C247.227 63.44 247.717 64.6767 247.717 66.17C247.717 67.6633 247.227 68.9233 246.247 69.95C245.267 70.93 244.031 71.42 242.537 71.42Z" fill="#1DB954"/>
<g clip-path="url(#clip0)">
<path d="M136.239 14.0004C135.482 14.0004 134.79 14.4282 134.451 15.1056L127.788 28.4252C127.051 29.8987 124.948 29.899 124.211 28.4256L117.544 15.1052C117.205 14.428 116.513 14.0004 115.755 14.0004H90.4766C88.9339 14.0004 87.972 15.6732 88.7481 17.0065L124.269 78.0303C125.04 79.3554 126.955 79.3554 127.726 78.0303L163.247 17.0065C164.023 15.6732 163.061 14.0004 161.518 14.0004H136.239Z" fill="#1DB954"/>
<path d="M135.579 14.0003C135.223 14.0003 134.894 14.1896 134.715 14.4972L126.862 27.9883C126.476 28.6509 125.519 28.6509 125.133 27.9883L117.28 14.4972C117.101 14.1896 116.772 14.0003 116.416 14.0003H104.337C103.566 14.0003 103.085 14.8367 103.473 15.5034L125.133 52.7144C125.519 53.377 126.476 53.377 126.862 52.7144L148.522 15.5034C148.91 14.8367 148.429 14.0003 147.658 14.0003H135.579Z" fill="#2D4F71"/>
</g>
<defs>
<clipPath id="clip0">
<rect width="78" height="67" fill="white" transform="translate(87 14)"/>
</clipPath>
</defs>
</svg>
