<?xml-stylesheet type="text/css" href="./css/movie.css"?>

<svg width="529" height="306" viewBox="0 0 529 306" fill="none" xmlns="http://www.w3.org/2000/svg">
<g id="movie" clip-path="url(#clip0)">
<g id="popcorn">
<path id="Vector" d="M9.12384 117.513H183.115C185.381 117.513 187.553 118.415 189.155 120.022C190.757 121.629 191.656 123.808 191.656 126.08V139.688H0.582817V126.08C0.582819 123.808 1.48267 121.629 3.08443 120.022C4.68618 118.415 6.85862 117.513 9.12384 117.513Z" fill="#2D2D2D"/>
<path id="Vector_2" d="M179.813 115.929C178.953 115.933 178.1 116.078 177.288 116.36C177.009 115.235 176.33 114.252 175.377 113.595C174.425 112.939 173.266 112.655 172.12 112.797C170.973 112.938 169.918 113.496 169.153 114.365C168.389 115.234 167.968 116.354 167.97 117.513C167.97 117.536 167.976 117.558 167.976 117.582C167.384 117.638 166.8 117.76 166.234 117.944C166.073 117.304 165.782 116.705 165.379 116.184C164.976 115.663 164.47 115.232 163.892 114.917C165.41 114.075 166.61 112.757 167.309 111.165C171.173 111.102 174.286 108.301 174.286 104.841C174.286 101.342 171.105 98.5055 167.18 98.5055C166.32 98.5093 165.467 98.655 164.655 98.9368C164.509 98.3139 164.239 97.727 163.861 97.2116C163.483 96.6963 163.004 96.2632 162.455 95.9384C161.905 95.6136 161.295 95.4038 160.663 95.3219C160.03 95.2399 159.387 95.2874 158.774 95.4614C158.16 95.6355 157.587 95.9325 157.091 96.3346C156.595 96.7366 156.185 97.2354 155.886 97.8007C155.587 98.3661 155.406 98.9863 155.353 99.624C155.299 100.262 155.376 100.903 155.576 101.511C155.388 101.643 155.212 101.791 155.035 101.938C154.142 101.167 152.982 100.779 151.806 100.86C151.199 99.1104 149.997 97.6313 148.412 96.6815C146.826 95.7316 144.958 95.3716 143.135 95.6645C141.312 95.9574 139.649 96.8845 138.439 98.2834C137.228 99.6823 136.547 101.464 136.515 103.316C135.881 103.366 135.256 103.491 134.652 103.689C134.584 103.421 134.492 103.159 134.379 102.907C135.003 102.355 135.503 101.678 135.849 100.92C136.195 100.162 136.379 99.3393 136.387 98.5055C136.387 95.0064 133.206 92.1698 129.281 92.1698C128.422 92.1736 127.568 92.3193 126.756 92.6011C126.61 91.9781 126.34 91.3913 125.962 90.8759C125.584 90.3606 125.105 89.9274 124.556 89.6026C124.006 89.2778 123.397 89.0681 122.764 88.9862C122.131 88.9042 121.489 88.9517 120.875 89.1257C120.261 89.2998 119.688 89.5968 119.192 89.9989C118.696 90.4009 118.286 90.8997 117.987 91.465C117.688 92.0304 117.507 92.6506 117.454 93.2883C117.401 93.9259 117.477 94.5678 117.678 95.1751C116.683 95.8677 115.862 96.7809 115.276 97.8438C114.691 98.9067 114.358 100.091 114.303 101.304C114.236 101.363 114.159 101.411 114.096 101.475C114.214 101.022 114.276 100.557 114.28 100.089C114.28 96.5903 111.098 93.7537 107.174 93.7537C106.314 93.7576 105.461 93.9033 104.648 94.185C104.502 93.5621 104.232 92.9752 103.854 92.4599C103.476 91.9445 102.998 91.5114 102.448 91.1866C101.898 90.8618 101.289 90.6521 100.656 90.5701C100.024 90.4881 99.3809 90.5356 98.767 90.7096C98.1531 90.8837 97.5808 91.1807 97.0845 91.5828C96.5882 91.9849 96.1783 92.4836 95.8795 93.049C95.5807 93.6143 95.3993 94.2345 95.346 94.8722C95.2928 95.5098 95.369 96.1517 95.5699 96.759C94.5216 97.4856 93.6648 98.4565 93.073 99.5883C92.4811 100.72 92.1719 101.979 92.1719 103.257C92.1719 104.535 92.4811 105.794 93.073 106.926C93.6648 108.058 94.5216 109.029 95.5699 109.756C95.2502 110.676 95.2502 111.678 95.5699 112.598C94.7786 113.152 94.0941 113.845 93.5497 114.644C93.2573 113.581 92.6028 112.653 91.6996 112.023C90.7964 111.393 89.7018 111.099 88.6056 111.194C87.5095 111.29 86.4812 111.767 85.6993 112.543C84.9173 113.319 84.4311 114.346 84.3251 115.444C83.692 115.072 83.008 114.795 82.2949 114.621C83.574 113.774 84.5812 112.574 85.1951 111.165C89.0585 111.102 92.1719 108.301 92.1719 104.841C92.1719 101.342 88.9904 98.5055 85.0658 98.5055C84.2062 98.5093 83.353 98.655 82.5405 98.9368C82.3948 98.3139 82.1246 97.727 81.7465 97.2116C81.3684 96.6963 80.89 96.2631 80.3404 95.9383C79.7908 95.6135 79.1812 95.4038 78.5485 95.3219C77.9158 95.2399 77.2732 95.2874 76.6593 95.4614C76.0454 95.6355 75.473 95.9325 74.9768 96.3346C74.4805 96.7366 74.0706 97.2354 73.7718 97.8007C73.473 98.3661 73.2915 98.9863 73.2383 99.624C73.1851 100.262 73.2613 100.903 73.4622 101.511C73.3609 101.581 73.2697 101.665 73.1718 101.74C72.9255 101.717 72.686 101.673 72.4329 101.673C71.5732 101.677 70.72 101.823 69.9076 102.105C69.8777 101.985 69.8285 101.874 69.79 101.759C69.9429 101.053 69.9307 100.322 69.7544 99.6227C69.5781 98.9231 69.2424 98.274 68.7738 97.7264C68.3052 97.1788 67.7164 96.7477 67.0537 96.4669C66.391 96.186 65.6724 96.0632 64.9543 96.1079C64.5431 94.9593 63.8726 93.9217 62.9952 93.0762C62.1179 92.2307 61.0574 91.6003 59.8968 91.2342C58.7361 90.8681 57.5068 90.7763 56.3049 90.9659C55.103 91.1555 53.9611 91.6214 52.9685 92.3272C51.976 93.0329 51.1596 93.9594 50.5833 95.0342C50.0071 96.109 49.6865 97.303 49.6466 98.5227C49.6068 99.7424 49.8488 100.955 50.3537 102.065C50.8586 103.176 51.6127 104.154 52.5571 104.923C52.0138 104.986 51.4781 105.103 50.9581 105.272C50.7714 104.5 50.3929 103.788 49.8578 103.202C49.3228 102.616 48.6486 102.175 47.898 101.921C47.1474 101.667 46.3449 101.607 45.5652 101.748C44.7855 101.888 44.0539 102.224 43.4386 102.725C42.7348 101.887 41.8543 101.215 40.8606 100.759C39.8669 100.304 38.7847 100.075 37.6922 100.089C36.8325 100.093 35.9793 100.239 35.1669 100.521C35.0211 99.8978 34.751 99.3109 34.3729 98.7956C33.9947 98.2802 33.5164 97.8471 32.9668 97.5223C32.4171 97.1975 31.8075 96.9878 31.1749 96.9058C30.5422 96.8238 29.8995 96.8713 29.2856 97.0454C28.6717 97.2194 28.0994 97.5164 27.6031 97.9185C27.1068 98.3206 26.6969 98.8193 26.3982 99.3847C26.0994 99.95 25.9179 100.57 25.8647 101.208C25.8115 101.846 25.8876 102.487 26.0886 103.095C25.0405 103.822 24.1838 104.792 23.592 105.924C23.0001 107.056 22.6908 108.315 22.6905 109.593C22.6905 109.618 22.6976 109.64 22.6978 109.665C21.578 109.494 20.4334 109.618 19.3757 110.024C19.2299 109.401 18.9598 108.815 18.5816 108.299C18.2035 107.784 17.7252 107.351 17.1755 107.026C16.6259 106.701 16.0163 106.491 15.3837 106.409C14.751 106.327 14.1083 106.375 13.4944 106.549C12.8806 106.723 12.3082 107.02 11.812 107.422C11.3157 107.824 10.9058 108.323 10.607 108.888C10.3082 109.454 10.1267 110.074 10.0735 110.711C10.0203 111.349 10.0964 111.991 10.2974 112.598C8.77443 113.632 7.66105 115.169 7.15084 116.941C6.64062 118.714 6.76585 120.609 7.50476 122.299C8.24367 123.988 9.54951 125.364 11.1952 126.187C12.8408 127.011 14.7222 127.23 16.5121 126.806C16.7971 128.458 17.5995 129.977 18.8031 131.141C20.0066 132.305 21.5485 133.054 23.2053 133.28C24.862 133.506 26.5474 133.196 28.0169 132.396C29.4864 131.597 30.6637 130.348 31.3779 128.831C32.0247 130.204 33.0525 131.361 34.338 132.162C35.6235 132.964 37.1122 133.376 38.6256 133.351C40.1391 133.325 41.613 132.862 42.8708 132.018C44.1286 131.173 45.1168 129.982 45.717 128.589C46.6475 128.575 47.5682 128.397 48.4364 128.061C48.9583 129.561 49.9197 130.868 51.1946 131.811C52.4696 132.755 53.9987 133.29 55.5819 133.347C57.1652 133.404 58.7286 132.98 60.0678 132.131C61.407 131.282 62.4594 130.047 63.0874 128.589C64.2387 128.566 65.3703 128.285 66.3995 127.767C67.12 129.044 68.1818 130.094 69.4652 130.799C70.7487 131.504 72.2029 131.836 73.664 131.757C75.1252 131.677 76.5353 131.191 77.7356 130.351C78.9358 129.511 79.8786 128.353 80.4577 127.005C80.8814 126.994 81.3036 126.95 81.7203 126.872C82.3112 128.309 83.3111 129.54 84.5953 130.411C85.8794 131.282 87.3909 131.754 88.9408 131.768C90.4908 131.782 92.0105 131.338 93.3103 130.49C94.61 129.643 95.6321 128.431 96.2489 127.005C96.8691 126.987 97.485 126.896 98.0838 126.733C99.6708 127.177 101.358 127.098 102.897 126.509C104.436 125.919 105.746 124.85 106.634 123.458C106.138 125.387 106.385 127.432 107.326 129.186C108.267 130.941 109.832 132.275 111.71 132.922C113.588 133.57 115.641 133.483 117.458 132.68C119.275 131.877 120.724 130.416 121.515 128.589C122.666 128.566 123.798 128.285 124.827 127.767C125.547 129.044 126.609 130.094 127.893 130.799C129.176 131.504 130.63 131.836 132.092 131.757C133.553 131.677 134.963 131.191 136.163 130.351C137.363 129.511 138.306 128.353 138.885 127.005C140.037 126.982 141.168 126.701 142.197 126.183C142.753 127.175 143.517 128.034 144.437 128.701C145.357 129.367 146.41 129.824 147.524 130.041C148.638 130.257 149.786 130.228 150.887 129.955C151.989 129.681 153.018 129.171 153.902 128.458C154.177 129.973 154.887 131.375 155.946 132.49C157.005 133.605 158.367 134.384 159.862 134.732C161.358 135.08 162.922 134.981 164.362 134.447C165.802 133.914 167.055 132.969 167.966 131.729C168.914 132.458 170.015 132.96 171.186 133.197C172.356 133.433 173.565 133.399 174.72 133.096C175.875 132.793 176.946 132.23 177.851 131.448C178.756 130.667 179.471 129.689 179.942 128.589C183.806 128.526 186.919 125.724 186.919 122.264C186.919 118.765 183.738 115.929 179.813 115.929ZM38.6741 112.66C38.6658 112.698 38.6601 112.737 38.6522 112.776C38.5946 112.773 38.54 112.761 38.4817 112.761C38.2458 112.767 38.0106 112.791 37.7782 112.832C37.791 112.804 37.809 112.778 37.8214 112.749C38.1071 112.735 38.3917 112.705 38.6741 112.66ZM104.648 110.024C104.625 109.932 104.586 109.847 104.558 109.757C105.763 108.919 106.714 107.761 107.303 106.414C108.341 106.408 109.367 106.183 110.313 105.753C111.259 105.324 112.104 104.699 112.793 103.92C112.732 104.223 112.701 104.532 112.7 104.841C112.707 105.325 112.788 105.804 112.94 106.263C111.584 107.211 110.558 108.56 110.005 110.123C108.288 109.452 106.389 109.417 104.648 110.024V110.024ZM151.943 110.615C151.94 110.518 151.952 110.418 151.946 110.321C152.147 110.321 152.348 110.307 152.548 110.28C152.854 111.305 153.366 112.256 154.052 113.076C153.903 113.117 153.746 113.143 153.601 113.192C153.346 112.174 152.763 111.268 151.943 110.615Z" fill="#F9A825"/>
<path id="Vector_3" d="M16.4897 125.432C14.2498 125.432 12.0334 125.89 9.97565 126.777C7.91792 127.665 6.06204 128.963 4.52127 130.594C2.9805 132.225 1.78715 134.153 1.01404 136.262C0.240923 138.371 -0.0957409 140.615 0.0245935 142.859L10.7176 290.346C10.9431 294.574 12.7761 298.553 15.8393 301.465C18.9024 304.378 22.9623 306.001 27.1827 306H165.057C169.277 306.001 173.337 304.378 176.4 301.465C179.463 298.553 181.296 294.574 181.522 290.346L192.215 142.859C192.335 140.615 191.998 138.371 191.225 136.262C190.452 134.153 189.259 132.225 187.718 130.594C186.177 128.963 184.321 127.665 182.264 126.777C180.206 125.89 177.989 125.432 175.75 125.432H16.4897Z" fill="#2D2D2D"/>
<path id="Vector_4" d="M33.7444 125.432H24.2696V306H33.7444V125.432Z" fill="#1DB954"/>
<path id="Vector_5" d="M60.5894 125.432H51.1147V306H60.5894V125.432Z" fill="#1DB954"/>
<path id="Vector_6" d="M87.4345 125.432H77.9597V306H87.4345V125.432Z" fill="#1DB954"/>
<path id="Vector_7" d="M114.28 125.432H104.805V306H114.28V125.432Z" fill="#1DB954"/>
<path id="Vector_8" d="M141.125 125.432H131.65V306H141.125V125.432Z" fill="#1DB954"/>
<path id="Vector_9" d="M167.97 125.432H158.495V306H167.97V125.432Z" fill="#1DB954"/>
</g>
<g id="drink">
<path id="2572ddba-42e8-4159-9036-35cbff74dfb7" d="M322.547 51.4062L318.417 41.3154L263.346 63.9936C262.099 64.5078 261.033 65.3821 260.282 66.5054C259.531 67.6287 259.131 68.9503 259.13 70.3026V129.984H270.008V73.0563L322.547 51.4062Z" fill="#1DB954"/>
<path id="Vector_10" d="M303.611 306H230.957L213.161 127.518H319.43L303.611 306Z" fill="#2D2D2D"/>
<path id="Vector_11" d="M327.337 124.544H205.749V136.44H327.337V124.544Z" fill="#2D2D2D"/>
</g>
<g id="play">
<path id="Vector_12" opacity="0.2" d="M413.516 45.8092C413.522 37.374 416.123 29.1462 420.962 22.2477C425.801 15.3492 432.644 10.1158 440.558 7.26118C448.471 4.40658 457.07 4.0697 465.181 6.2965C473.292 8.52329 480.521 13.2054 485.883 19.7042C482.962 14.8867 479.083 10.7252 474.486 7.47968C469.89 4.23417 464.675 1.97446 459.169 0.841754C453.663 -0.290947 447.982 -0.272284 442.483 0.896574C436.984 2.06543 431.785 4.35936 427.21 7.635C422.635 10.9106 418.782 15.0976 415.894 19.9342C413.005 24.7707 411.141 30.153 410.42 35.7446C409.699 41.3361 410.135 47.0168 411.702 52.4316C413.268 57.8464 415.932 62.8788 419.525 67.2145C415.584 60.7754 413.504 53.3648 413.516 45.8092Z" fill="#E3E3E3"/>
<path id="Vector_13" d="M451.035 82.0906C473.603 82.0906 491.898 63.74 491.898 41.1034C491.898 18.4669 473.603 0.116333 451.035 0.116333C428.467 0.116333 410.172 18.4669 410.172 41.1034C410.172 63.74 428.467 82.0906 451.035 82.0906Z" fill="#3AD29F"/>
<path id="Vector_14" d="M478.092 41.1034L437.192 61.2604V41.1034V20.9464L478.092 41.1034Z" fill="url(#paint0_linear)"/>
<path id="Vector_15" d="M475.633 41.1034L439.645 58.8433V41.1034V23.3635L475.633 41.1034Z" fill="#E3E3E3"/>
</g>
<g id="3dglass">
<path id="Vector_16" d="M443.858 253.834C443.382 253.835 442.925 254.024 442.588 254.362C442.251 254.7 442.061 255.158 442.06 255.636V304.198C442.061 304.676 442.251 305.134 442.588 305.472C442.925 305.81 443.382 306 443.858 306H527.202C527.679 306 528.135 305.81 528.472 305.472C528.809 305.134 528.999 304.676 529 304.198V255.636C528.999 255.158 528.809 254.7 528.472 254.362C528.135 254.024 527.679 253.835 527.202 253.834H443.858Z" fill="#2D2D2D"/>
<path id="Vector_17" d="M455.211 259.459C454.377 259.46 453.577 259.793 452.987 260.385C452.398 260.977 452.066 261.779 452.065 262.617V297.3C452.066 298.137 452.398 298.94 452.987 299.532C453.577 300.124 454.377 300.457 455.211 300.458H516.027C516.861 300.457 517.66 300.124 518.25 299.532C518.84 298.94 519.172 298.137 519.173 297.3V262.617C519.172 261.779 518.84 260.977 518.25 260.385C517.66 259.793 516.861 259.46 516.027 259.459L455.211 259.459Z" fill="#FF6584"/>
<path id="Vector_18" d="M444.795 269.831H401.381V279.917H444.795V269.831Z" fill="#2D2D2D"/>
<path id="Vector_19" d="M325.836 253.834C325.36 253.835 324.904 254.025 324.567 254.363C324.231 254.7 324.041 255.158 324.04 255.636V304.198C324.041 304.676 324.231 305.134 324.567 305.471C324.904 305.809 325.36 305.999 325.836 306H409.182C409.658 305.999 410.115 305.809 410.451 305.471C410.788 305.134 410.978 304.676 410.978 304.198V255.636C410.978 255.158 410.788 254.7 410.451 254.363C410.115 254.025 409.658 253.835 409.182 253.834H325.836Z" fill="#2D2D2D"/>
<path id="Vector_20" d="M336.887 259.459C336.045 259.459 335.237 259.792 334.642 260.384C334.046 260.976 333.711 261.779 333.71 262.617V297.3C333.711 298.137 334.046 298.94 334.642 299.532C335.237 300.124 336.045 300.457 336.887 300.458H398.252C399.094 300.457 399.902 300.124 400.497 299.532C401.092 298.94 401.428 298.137 401.429 297.3V262.617C401.428 261.779 401.092 260.976 400.497 260.384C399.902 259.792 399.094 259.459 398.252 259.459L336.887 259.459Z" fill="#1DB954"/>
</g>
</g>
<defs>
<linearGradient id="paint0_linear" x1="457.642" y1="61.2605" x2="457.642" y2="20.9465" gradientUnits="userSpaceOnUse">
<stop stop-opacity="0.12"/>
<stop offset="0.55" stop-opacity="0.09"/>
<stop offset="1" stop-opacity="0.02"/>
</linearGradient>
<clipPath id="clip0">
<rect width="529" height="306" fill="white"/>
</clipPath>
</defs>
</svg>
