<?xml-stylesheet type="text/css" href="./css/home.css"?>

<svg width="556" height="420" viewBox="0 0 556 420" fill="none" xmlns="http://www.w3.org/2000/svg">
<g id="movue_home">
<g id="Group 16">
<path id="Leaf" d="M114.255 283.639C114.273 321.298 91.8918 334.456 64.2779 334.469C63.6364 334.47 62.9981 334.463 62.3628 334.449C61.0831 334.422 59.8166 334.364 58.5634 334.276C33.6401 332.523 14.2687 318.71 14.2517 283.688C14.2341 247.444 60.5338 201.683 64.0061 198.299C64.0091 198.299 64.0091 198.299 64.0122 198.296C64.1441 198.167 64.2116 198.103 64.2116 198.103C64.2116 198.103 114.236 245.984 114.255 283.639Z" fill="#1DB954"/>
<path id="Vector_2" d="M62.4552 328.71L80.7303 303.149L62.4105 331.515L62.3628 334.449C61.083 334.422 59.8166 334.364 58.5634 334.276L60.5154 296.601L60.4999 296.309L60.5336 296.254L60.7191 292.694L42.3257 264.276L60.773 290.027L60.8194 290.782L62.294 262.317L46.5455 232.95L62.4849 257.315L64.0061 198.299L64.0121 198.103L64.0122 198.296L63.777 244.836L79.4286 226.378L63.7114 248.844L63.3095 274.332L77.927 249.866L63.2531 278.079L63.0298 292.251L84.2438 258.194L62.9493 297.195L62.4552 328.71Z" fill="#2D2D2D"/>
<path id="Vector_3" d="M108.949 333.901H14.3037V335.021H108.949V333.901Z" fill="#2D2D2D"/>
<path id="Vector_4" d="M20.7204 205.794C19.3912 205.794 18.0919 205.4 16.9867 204.661C15.8816 203.923 15.0202 202.873 14.5116 201.645C14.0029 200.417 13.8698 199.066 14.1291 197.762C14.3884 196.459 15.0285 195.261 15.9684 194.321C16.9082 193.382 18.1057 192.741 19.4093 192.482C20.7129 192.223 22.0642 192.356 23.2921 192.865C24.5201 193.373 25.5697 194.235 26.3081 195.34C27.0466 196.445 27.4407 197.744 27.4407 199.073C27.4387 200.855 26.7301 202.563 25.4702 203.823C24.2103 205.083 22.5021 205.792 20.7204 205.794ZM20.7204 193.473C19.6127 193.473 18.53 193.802 17.609 194.417C16.688 195.032 15.9702 195.907 15.5464 196.93C15.1225 197.954 15.0116 199.08 15.2277 200.166C15.4437 201.252 15.9771 202.25 16.7603 203.033C17.5436 203.817 18.5414 204.35 19.6278 204.566C20.7141 204.782 21.8402 204.671 22.8635 204.247C23.8868 203.824 24.7615 203.106 25.3768 202.185C25.9922 201.264 26.3206 200.181 26.3206 199.073C26.319 197.589 25.7284 196.165 24.6785 195.115C23.6286 194.065 22.2051 193.475 20.7204 193.473Z" fill="#25CB60"/>
<path id="Vector_5" d="M116.196 180.561H101.635V166H116.196V180.561ZM102.755 179.441H115.076V167.12H102.755V179.441Z" fill="#25CB60"/>
</g>
<g id="Group 21">
<path id="Vector_6" d="M502.159 249.796C498.693 221.936 481.42 194.485 454.838 185.419C465.321 214.095 465.319 245.553 454.832 274.228C450.748 285.272 445.054 297.13 448.896 308.261C451.287 315.186 457.135 320.485 463.671 323.799C470.209 327.112 477.464 328.691 484.628 330.238L486.038 331.404C497.411 305.734 505.625 277.656 502.159 249.796Z" fill="#F0F0F0"/>
<path id="Vector_7" d="M454.575 185.945C470.054 203.283 479.675 225.055 482.071 248.169C482.554 253.124 482.613 258.193 481.53 263.077C480.437 267.83 478.091 272.203 474.735 275.743C471.673 279.106 468.151 282.192 465.959 286.241C463.65 290.508 463.561 295.357 465.142 299.891C467.077 305.437 470.89 309.958 474.772 314.249C479.083 319.014 483.636 323.895 485.468 330.212C485.69 330.977 486.865 330.588 486.644 329.824C483.456 318.834 472.783 312.591 467.693 302.692C465.317 298.073 464.321 292.711 466.547 287.835C468.494 283.571 472.124 280.386 475.254 277.007C478.541 273.46 481.061 269.567 482.359 264.87C483.687 260.066 483.826 254.984 483.472 250.038C482.585 238.829 479.94 227.829 475.635 217.442C470.787 205.559 463.941 194.593 455.394 185.017C454.865 184.425 454.049 185.357 454.575 185.945L454.575 185.945Z" fill="white"/>
<path id="Vector_8" d="M481.738 240.681C485.563 239.753 488.934 237.496 491.248 234.313C493.561 231.13 494.668 227.228 494.37 223.305C494.307 222.511 493.07 222.572 493.133 223.367C493.418 227.019 492.386 230.654 490.226 233.613C488.065 236.573 484.917 238.663 481.35 239.506C480.575 239.69 480.968 240.864 481.738 240.681H481.738Z" fill="white"/>
<path id="Vector_9" d="M476.513 274.242C469.604 270.118 464.504 263.544 462.23 255.829C462.005 255.064 460.83 255.453 461.054 256.217C463.436 264.241 468.757 271.072 475.956 275.347C476.642 275.754 477.195 274.647 476.513 274.242Z" fill="white"/>
<path id="Vector_10" d="M469.639 206.731C468.233 207.398 466.684 207.707 465.131 207.628C463.577 207.549 462.067 207.086 460.737 206.279C460.056 205.864 459.504 206.972 460.18 207.384C461.654 208.268 463.322 208.778 465.039 208.869C466.755 208.96 468.468 208.629 470.027 207.906C470.179 207.85 470.305 207.738 470.378 207.593C470.451 207.448 470.466 207.28 470.42 207.125C470.368 206.969 470.257 206.841 470.11 206.767C469.964 206.693 469.794 206.68 469.639 206.731Z" fill="white"/>
<path id="Vector_11" d="M373.815 235.181C374.233 235.452 374.651 235.724 375.069 236.006C380.667 239.685 385.957 243.813 390.886 248.349C391.273 248.694 391.66 249.049 392.035 249.404C403.795 260.459 413.398 273.6 420.358 288.159C423.123 293.955 425.442 299.952 427.296 306.1C429.855 314.59 431.955 324 437.022 330.944C437.543 331.675 438.108 332.372 438.715 333.033H484.506C484.61 332.981 484.714 332.939 484.819 332.887L486.647 332.97C486.574 332.647 486.491 332.312 486.417 331.989C486.375 331.801 486.323 331.613 486.282 331.425C486.25 331.299 486.219 331.174 486.198 331.059C486.188 331.017 486.177 330.976 486.167 330.944C486.146 330.83 486.114 330.725 486.093 330.621C485.634 328.751 485.16 326.882 484.673 325.013C484.673 325.002 484.673 325.002 484.662 324.992C480.911 310.758 475.939 296.712 468.991 283.867C468.782 283.48 468.573 283.083 468.343 282.697C465.18 276.924 461.549 271.42 457.488 266.239C455.256 263.409 452.881 260.693 450.374 258.103C443.882 251.424 436.38 245.806 428.142 241.457C411.718 232.789 392.704 229.468 375.152 234.763C374.703 234.899 374.264 235.034 373.815 235.181Z" fill="#F0F0F0"/>
<path id="Vector_12" d="M373.918 235.762C396.72 240.288 417.516 251.882 433.351 268.896C436.721 272.561 439.821 276.573 441.898 281.125C443.888 285.577 444.649 290.481 444.101 295.327C443.682 299.855 442.728 304.439 443.418 308.99C444.144 313.788 446.994 317.713 450.987 320.381C455.872 323.645 461.639 324.96 467.324 326.05C473.636 327.26 480.211 328.417 485.479 332.358C486.117 332.835 486.821 331.818 486.184 331.341C477.019 324.484 464.737 325.923 454.71 321.083C450.032 318.824 446.006 315.142 444.847 309.909C443.834 305.333 444.813 300.606 445.277 296.024C445.765 291.214 445.432 286.589 443.64 282.057C441.806 277.422 438.857 273.281 435.595 269.545C428.136 261.129 419.399 253.938 409.704 248.235C398.676 241.665 386.605 237.029 374.013 234.528C373.234 234.373 373.144 235.608 373.918 235.762V235.762Z" fill="white"/>
<path id="Vector_13" d="M428.575 263.117C431.07 260.074 432.401 256.244 432.332 252.31C432.262 248.376 430.796 244.594 428.195 241.641C427.666 241.046 426.715 241.838 427.244 242.435C429.672 245.18 431.037 248.703 431.095 252.366C431.152 256.03 429.897 259.593 427.557 262.413C427.049 263.026 428.07 263.727 428.575 263.117L428.575 263.117Z" fill="white"/>
<path id="Vector_14" d="M444.617 293.059C436.617 293.924 428.585 291.744 422.122 286.953C421.482 286.477 420.778 287.495 421.417 287.97C428.152 292.943 436.515 295.195 444.838 294.276C445.631 294.188 445.406 292.971 444.617 293.059Z" fill="white"/>
<path id="Vector_15" d="M398.465 243.292C397.745 244.671 396.694 245.849 395.406 246.721C394.118 247.593 392.634 248.132 391.086 248.289C390.292 248.367 390.518 249.584 391.307 249.506C393.016 249.325 394.655 248.728 396.08 247.767C397.505 246.807 398.674 245.512 399.483 243.997C399.571 243.86 399.604 243.695 399.575 243.535C399.546 243.375 399.457 243.232 399.327 243.136C399.191 243.043 399.025 243.008 398.864 243.037C398.703 243.066 398.559 243.158 398.465 243.292V243.292Z" fill="white"/>
</g>
<g id="Group 22">
<path id="Vector_16" d="M63.5207 278.879C65.7758 260.753 77.0138 242.894 94.3075 236.995C87.4873 255.652 87.4888 276.119 94.3116 294.774C96.969 301.96 100.673 309.675 98.1735 316.916C96.6183 321.422 92.8136 324.869 88.5608 327.025C84.3077 329.181 79.5876 330.208 74.9266 331.215L74.0093 331.973C66.6101 315.272 61.2656 297.005 63.5207 278.879Z" fill="#F0F0F0"/>
<path id="Vector_17" d="M94.479 237.338C84.408 248.618 78.1486 262.783 76.5898 277.821C76.1968 281.052 76.3157 284.325 76.9423 287.52C77.6533 290.612 79.1796 293.457 81.3628 295.76C83.3552 297.948 85.6467 299.956 87.0722 302.59C87.7819 303.949 88.1962 305.443 88.2878 306.973C88.3794 308.504 88.1464 310.036 87.6039 311.471C86.3453 315.079 83.8646 318.02 81.3387 320.812C78.5341 323.912 75.5719 327.088 74.3798 331.198C74.2353 331.696 73.4708 331.442 73.615 330.945C75.6892 323.795 82.6331 319.733 85.9446 313.293C87.4898 310.288 88.1384 306.799 86.6898 303.627C85.423 300.853 83.0618 298.781 81.0253 296.583C78.8627 294.367 77.2756 291.656 76.4027 288.686C75.6154 285.534 75.3705 282.271 75.6785 279.037C76.2556 271.744 77.9762 264.588 80.7773 257.829C83.9314 250.099 88.3852 242.964 93.9462 236.734C94.2905 236.349 94.8211 236.955 94.479 237.338Z" fill="white"/>
<path id="Vector_18" d="M76.8066 272.949C74.318 272.345 72.1252 270.877 70.6198 268.806C69.1144 266.735 68.3944 264.197 68.5885 261.644C68.6295 261.128 69.4341 261.167 69.393 261.684C69.2079 264.061 69.8789 266.425 71.2846 268.351C72.6904 270.276 74.7384 271.636 77.0591 272.185C77.5633 272.304 77.3079 273.068 76.8066 272.949Z" fill="white"/>
<path id="Vector_19" d="M80.2064 294.784C84.7011 292.101 88.0191 287.823 89.4989 282.804C89.6451 282.307 90.4097 282.56 90.2636 283.056C88.714 288.277 85.252 292.721 80.5686 295.503C80.122 295.767 79.7622 295.047 80.2064 294.784Z" fill="white"/>
<path id="Vector_20" d="M84.6786 250.861C85.5928 251.295 86.6005 251.496 87.6114 251.445C88.6222 251.393 89.6045 251.092 90.47 250.567C90.913 250.297 91.2723 251.018 90.8322 251.286C89.8733 251.861 88.788 252.193 87.6713 252.252C86.5546 252.311 85.4404 252.096 84.4261 251.626C84.3267 251.589 84.245 251.516 84.1974 251.422C84.1499 251.328 84.14 251.219 84.17 251.117C84.2039 251.016 84.2764 250.933 84.3716 250.885C84.4668 250.837 84.5772 250.828 84.6786 250.861Z" fill="white"/>
<path id="Vector_21" d="M147.021 269.37C146.749 269.547 146.477 269.724 146.205 269.907C142.563 272.301 139.122 274.987 135.915 277.938C135.663 278.162 135.412 278.393 135.167 278.624C127.517 285.816 121.268 294.366 116.74 303.838C114.942 307.609 113.433 311.511 112.227 315.511C110.561 321.034 109.195 327.156 105.899 331.674C105.56 332.149 105.192 332.603 104.798 333.033H75.006C74.9383 332.999 74.8703 332.972 74.8022 332.938L73.6127 332.992C73.6605 332.782 73.7146 332.564 73.7624 332.354C73.7896 332.231 73.8235 332.109 73.8507 331.987C73.8709 331.905 73.8915 331.824 73.9051 331.749C73.9118 331.722 73.9187 331.695 73.9254 331.674C73.939 331.599 73.9596 331.531 73.9732 331.464C74.2722 330.247 74.5803 329.031 74.8975 327.815C74.8975 327.808 74.8975 327.808 74.9041 327.801C77.3445 318.541 80.5797 309.402 85.0997 301.045C85.2358 300.794 85.3715 300.536 85.5212 300.284C87.5795 296.529 89.9415 292.948 92.5835 289.577C94.0361 287.735 95.581 285.969 97.2123 284.284C101.436 279.938 106.317 276.283 111.676 273.454C122.361 267.814 134.732 265.654 146.151 269.099C146.443 269.187 146.729 269.275 147.021 269.37Z" fill="#F0F0F0"/>
<path id="Vector_22" d="M146.954 269.748C132.119 272.694 118.589 280.236 108.287 291.305C106.027 293.649 104.15 296.334 102.727 299.262C101.432 302.158 100.937 305.349 101.293 308.501C101.566 311.448 102.186 314.43 101.738 317.391C101.486 318.903 100.917 320.345 100.068 321.622C99.2196 322.9 98.1105 323.983 96.8135 324.801C93.6351 326.925 89.8829 327.781 86.1844 328.49C82.078 329.277 77.8001 330.03 74.3729 332.594C73.9576 332.905 73.4997 332.242 73.9143 331.932C79.8771 327.471 87.8678 328.407 94.3909 325.258C97.4347 323.789 100.054 321.393 100.808 317.989C101.467 315.012 100.83 311.936 100.528 308.955C100.136 305.885 100.501 302.765 101.593 299.868C102.863 296.878 104.633 294.125 106.827 291.728C111.68 286.253 117.365 281.574 123.672 277.864C130.847 273.589 138.7 270.573 146.892 268.946C147.399 268.845 147.458 269.649 146.954 269.748H146.954Z" fill="white"/>
<path id="Vector_23" d="M111.395 287.546C109.771 285.566 108.905 283.074 108.95 280.514C108.996 277.955 109.95 275.495 111.642 273.574C111.986 273.186 112.604 273.702 112.26 274.09C110.681 275.876 109.793 278.168 109.755 280.551C109.718 282.935 110.534 285.253 112.057 287.088C112.387 287.487 111.723 287.943 111.395 287.546H111.395Z" fill="white"/>
<path id="Vector_24" d="M100.958 307.026C106.162 307.589 111.388 306.17 115.593 303.053C116.009 302.744 116.467 303.406 116.051 303.715C111.67 306.951 106.229 308.416 100.814 307.818C100.298 307.76 100.445 306.969 100.958 307.026Z" fill="white"/>
<path id="Vector_25" d="M130.984 274.648C131.452 275.545 132.136 276.311 132.974 276.878C133.812 277.446 134.778 277.796 135.785 277.898C136.301 277.949 136.154 278.741 135.641 278.69C134.529 278.573 133.463 278.184 132.536 277.559C131.608 276.935 130.848 276.092 130.322 275.106C130.264 275.017 130.243 274.91 130.262 274.806C130.281 274.702 130.338 274.609 130.423 274.546C130.511 274.486 130.62 274.463 130.725 274.482C130.829 274.501 130.923 274.56 130.984 274.648Z" fill="white"/>
<path id="Vector_26" d="M555.542 333.712H0.679707C0.499437 333.712 0.326551 333.641 0.199081 333.513C0.0716112 333.386 0 333.213 0 333.033C0 332.853 0.0716112 332.68 0.199081 332.553C0.326551 332.425 0.499437 332.354 0.679707 332.354H555.32C555.501 332.354 555.673 332.425 555.801 332.553C555.928 332.68 556 332.853 556 333.033C556 333.408 555.918 333.712 555.542 333.712Z" fill="#CACACA"/>
</g>
<path id="Vector_27" d="M194.618 393.502H72.0489C71.8686 393.502 71.6958 393.431 71.5683 393.303C71.4408 393.176 71.3692 393.003 71.3692 392.823C71.3692 392.643 71.4408 392.47 71.5683 392.342C71.6958 392.215 71.8686 392.143 72.0489 392.143H194.396C194.576 392.143 194.749 392.215 194.877 392.342C195.004 392.47 195.076 392.643 195.076 392.823C195.076 393.198 194.994 393.502 194.618 393.502Z" fill="#CACACA"/>
<g id="Group 20">
<path id="Vector_28" d="M303.792 399.013C304.666 391.988 309.021 385.066 315.723 382.78C313.08 390.011 313.081 397.943 315.725 405.173C316.755 407.957 318.19 410.947 317.222 413.754C316.528 415.489 315.194 416.891 313.496 417.672C311.811 418.436 310.036 418.982 308.212 419.295L307.857 419.589C304.989 413.117 302.918 406.037 303.792 399.013Z" fill="#F0F0F0"/>
<path id="Vector_29" d="M315.79 382.913C311.887 387.285 309.461 392.774 308.857 398.602C308.704 399.855 308.751 401.123 308.993 402.361C309.269 403.56 309.86 404.662 310.706 405.555C311.549 406.344 312.292 407.233 312.919 408.202C313.194 408.728 313.355 409.307 313.39 409.901C313.426 410.494 313.336 411.088 313.125 411.643C312.567 413.001 311.741 414.232 310.697 415.264C309.61 416.465 308.462 417.696 308 419.289C307.944 419.482 307.648 419.384 307.704 419.191C308.508 416.42 311.199 414.846 312.482 412.35C312.813 411.789 313.011 411.159 313.061 410.51C313.111 409.861 313.012 409.209 312.771 408.604C312.189 407.583 311.448 406.661 310.576 405.874C309.738 405.015 309.123 403.964 308.784 402.813C308.479 401.592 308.384 400.327 308.504 399.074C308.727 396.247 309.394 393.474 310.48 390.855C311.702 387.858 313.428 385.093 315.583 382.679C315.717 382.53 315.922 382.765 315.79 382.913H315.79Z" fill="white"/>
<path id="Vector_30" d="M336.152 395.327C336.047 395.396 335.942 395.464 335.836 395.535C334.425 396.463 333.091 397.504 331.848 398.648C331.751 398.735 331.653 398.824 331.558 398.914C328.593 401.701 326.172 405.014 324.417 408.685C323.72 410.147 323.135 411.659 322.668 413.209C322.022 415.35 321.493 417.722 320.215 419.473C320.084 419.657 319.942 419.833 319.789 420H308.243C308.217 419.987 308.19 419.976 308.164 419.963L307.703 419.984C307.721 419.903 307.742 419.818 307.761 419.737C307.771 419.689 307.785 419.642 307.795 419.594C307.803 419.563 307.811 419.531 307.816 419.502C307.819 419.492 307.821 419.481 307.824 419.473C307.829 419.444 307.837 419.418 307.843 419.392C307.958 418.92 308.078 418.449 308.201 417.978L308.203 417.972C309.106 414.372 310.432 410.891 312.155 407.603C312.207 407.506 312.26 407.406 312.318 407.308C313.116 405.853 314.031 404.465 315.055 403.158C315.618 402.445 316.217 401.76 316.849 401.107C318.486 399.423 320.377 398.006 322.454 396.91C326.596 394.724 331.39 393.887 335.815 395.222C335.929 395.256 336.039 395.29 336.152 395.327Z" fill="#F0F0F0"/>
<path id="Vector_31" d="M336.127 395.474C330.377 396.615 325.134 399.539 321.141 403.828C320.265 404.737 319.538 405.777 318.986 406.912C318.484 408.034 318.292 409.271 318.43 410.493C318.627 411.63 318.685 412.787 318.603 413.938C318.505 414.524 318.285 415.083 317.956 415.578C317.627 416.073 317.197 416.493 316.694 416.81C315.431 417.557 314.03 418.043 312.575 418.239C310.984 418.544 309.326 418.836 307.998 419.83C307.837 419.95 307.659 419.694 307.82 419.573C310.131 417.844 313.227 418.207 315.756 416.987C316.358 416.738 316.895 416.355 317.326 415.866C317.757 415.378 318.07 414.798 318.242 414.17C318.393 413.004 318.356 411.822 318.134 410.669C317.982 409.479 318.124 408.27 318.547 407.147C319.039 405.988 319.725 404.921 320.575 403.992C322.456 401.87 324.659 400.057 327.103 398.619C329.884 396.962 332.928 395.793 336.103 395.163C336.299 395.124 336.322 395.435 336.127 395.474H336.127Z" fill="white"/>
<path id="Vector_32" d="M386.975 420H264.406C264.226 420 264.053 419.928 263.925 419.801C263.798 419.674 263.726 419.501 263.726 419.321C263.726 419.14 263.798 418.968 263.925 418.84C264.053 418.713 264.226 418.641 264.406 418.641H386.753C386.933 418.641 387.106 418.713 387.234 418.84C387.361 418.968 387.433 419.14 387.433 419.321C387.433 419.696 387.351 420 386.975 420Z" fill="#CACACA"/>
<path id="Vector_33" d="M308.941 396.714C307.976 396.48 307.126 395.911 306.543 395.109C305.96 394.306 305.681 393.322 305.756 392.333C305.772 392.133 306.083 392.148 306.068 392.349C305.996 393.27 306.256 394.186 306.801 394.932C307.345 395.678 308.139 396.205 309.039 396.418C309.234 396.464 309.135 396.76 308.941 396.714H308.941Z" fill="white"/>
<path id="Vector_34" d="M310.258 405.176C312 404.137 313.286 402.479 313.86 400.534C313.916 400.341 314.213 400.439 314.156 400.631C313.556 402.655 312.214 404.377 310.399 405.455C310.226 405.558 310.086 405.278 310.258 405.176Z" fill="white"/>
<path id="Vector_35" d="M311.992 388.154C312.346 388.322 312.736 388.4 313.128 388.38C313.52 388.36 313.901 388.243 314.236 388.04C314.408 387.935 314.547 388.215 314.376 388.319C314.005 388.542 313.584 388.67 313.151 388.693C312.719 388.716 312.287 388.633 311.894 388.45C311.855 388.436 311.824 388.408 311.805 388.371C311.787 388.335 311.783 388.293 311.794 388.253C311.808 388.214 311.836 388.182 311.873 388.163C311.909 388.145 311.952 388.141 311.992 388.154L311.992 388.154Z" fill="white"/>
<path id="Vector_36" d="M322.345 402.371C321.716 401.604 321.381 400.638 321.398 399.646C321.416 398.654 321.785 397.701 322.441 396.956C322.575 396.806 322.814 397.006 322.681 397.156C322.069 397.849 321.725 398.737 321.71 399.661C321.696 400.584 322.012 401.483 322.602 402.194C322.73 402.348 322.473 402.525 322.345 402.371Z" fill="white"/>
<path id="Vector_37" d="M318.301 409.921C320.318 410.139 322.343 409.589 323.972 408.381C324.134 408.261 324.311 408.518 324.15 408.638C322.452 409.892 320.343 410.459 318.245 410.228C318.045 410.206 318.102 409.899 318.301 409.921H318.301Z" fill="white"/>
<path id="Vector_38" d="M329.937 397.373C330.119 397.72 330.384 398.017 330.709 398.237C331.033 398.457 331.408 398.593 331.798 398.632C331.998 398.652 331.941 398.959 331.742 398.939C331.311 398.894 330.898 398.743 330.539 398.501C330.179 398.259 329.885 397.932 329.681 397.55C329.658 397.516 329.65 397.474 329.657 397.434C329.665 397.394 329.687 397.358 329.72 397.333C329.754 397.31 329.796 397.301 329.837 397.308C329.877 397.316 329.914 397.339 329.937 397.373Z" fill="white"/>
</g>
<path id="Vector_39" d="M502.525 392.823H379.956C379.776 392.823 379.603 392.751 379.475 392.624C379.348 392.496 379.276 392.324 379.276 392.143C379.276 391.963 379.348 391.79 379.475 391.663C379.603 391.535 379.776 391.464 379.956 391.464H502.303C502.483 391.464 502.656 391.535 502.784 391.663C502.911 391.79 502.983 391.963 502.983 392.143C502.983 392.519 502.901 392.823 502.525 392.823Z" fill="#CACACA"/>
<g id="meditate">
<path id="Path 164" d="M261.282 352.581C261.282 352.581 268.358 340.975 277.443 347.837C286.528 354.699 303.354 366.276 303.354 366.276C303.354 366.276 306.8 373.681 297.88 370.9C288.961 368.118 259.844 363.642 259.844 363.642L261.282 352.581Z" fill="#FEB8B8"/>
<path id="Path 161" d="M226.518 367.004C218.904 367.004 211.933 366.275 206.395 364.551C199.812 362.502 195.679 359.189 194.108 354.696C193.37 352.788 193.15 350.719 193.47 348.699C193.789 346.678 194.637 344.778 195.928 343.191C205.667 330.507 239.461 326.929 243.995 326.507L253.194 309.095C253.783 304.94 250.998 301.795 255.809 301.717L312.725 300.944C317.45 300.845 316.109 303.77 316.918 307.82L325.589 323.294L288.269 339.038L293.911 352.782L293.543 352.996C282.621 359.329 251.209 367.004 226.518 367.004Z" fill="#2D2D2D"/>
<path id="Path 162" d="M320.423 323.954C320.423 323.954 372.543 317.992 369.143 341.841C365.744 365.689 326.088 382.582 266.036 341.841L272.835 329.916C272.835 329.916 295.212 328.804 308.809 322.842L320.423 323.954Z" fill="#2D2D2D"/>
<path id="Path 166" d="M246.634 215.911C246.634 215.911 236.728 214.111 234.026 229.414C231.325 244.717 226.997 280.967 226.997 280.967L213.56 327.531C211.975 328.372 210.662 329.646 209.775 331.205C208.887 332.764 208.462 334.543 208.549 336.334C208.635 338.126 209.23 339.856 210.263 341.322C211.296 342.788 212.725 343.931 214.384 344.615C216.042 345.3 217.861 345.499 219.629 345.189C221.396 344.879 223.038 344.072 224.364 342.864C225.69 341.655 226.645 340.095 227.117 338.364C227.588 336.634 227.558 334.805 227.028 333.091L245.008 283.671L248.435 241.12V218.824C248.435 218.22 248.267 217.627 247.949 217.112C247.63 216.598 247.175 216.182 246.634 215.911Z" fill="#FEB8B8"/>
<path id="Path 166_2" d="M316.361 215.911C316.361 215.911 326.267 214.111 328.969 229.414C331.671 244.717 335.998 280.967 335.998 280.967L349.435 327.531C351.02 328.372 352.333 329.646 353.22 331.205C354.108 332.764 354.533 334.543 354.447 336.334C354.36 338.126 353.766 339.856 352.732 341.322C351.699 342.788 350.27 343.931 348.611 344.615C346.953 345.3 345.134 345.499 343.367 345.189C341.599 344.879 339.957 344.072 338.631 342.864C337.305 341.655 336.35 340.095 335.879 338.364C335.407 336.634 335.437 334.805 335.967 333.091L317.987 283.671L314.56 241.12V218.824C314.56 218.22 314.729 217.627 315.047 217.112C315.365 216.598 315.82 216.182 316.361 215.911Z" fill="#FEB8B8"/>
<path id="Vector_40" d="M315.606 203.262L296.868 196.257L260.55 195.788L244.917 203.262L249.307 228.486C249.307 228.486 240.442 243.492 250.203 258.498L252.393 311.971C252.393 311.971 287.409 332.267 316.965 307.894L310.285 258.178C310.285 258.178 321.459 235.111 312.798 226.541L315.606 203.262Z" fill="#1DB954"/>
<path id="Vector_41" d="M307.974 211.101L315.606 203.262C315.606 203.262 332.262 212.019 331.919 241.31L310.908 234.837L307.974 211.101Z" fill="#1DB954"/>
<path id="Vector_42" d="M253.395 211.101L245.287 202.995C245.287 202.995 230.979 214.058 231.322 243.348L250.461 234.837L253.395 211.101Z" fill="#1DB954"/>
<path id="Path 163" d="M306.251 346.786C306.251 346.786 300.415 334.511 290.668 340.395C280.92 346.28 262.986 356.054 262.986 356.054C262.986 356.054 258.792 363.062 267.951 361.219C277.111 359.376 306.535 357.937 306.535 357.937L306.251 346.786Z" fill="#FEB8B8"/>
<path id="Vector_43" d="M290.036 127.358C290.119 127.279 290.205 127.208 290.287 127.127C295.502 121.913 296.559 114.517 292.647 110.607C288.951 106.912 282.142 107.658 277.002 112.15C272.596 107.957 266.687 106.788 262.862 109.683C258.452 113.021 258.486 120.492 262.939 126.37C263.244 126.772 263.564 127.153 263.893 127.519C257.967 129.687 252.851 133.623 249.236 138.793C245.621 143.963 243.683 150.119 243.683 156.426V185.724C243.683 186.583 243.852 187.433 244.181 188.227C244.51 189.021 244.992 189.742 245.6 190.349C246.208 190.957 246.929 191.439 247.723 191.767C248.517 192.096 249.368 192.265 250.228 192.265H304.397C306.075 192.265 307.683 191.599 308.87 190.414C310.056 189.228 310.722 187.62 310.722 185.943V156.426C310.721 150.034 308.729 143.8 305.022 138.591C301.315 133.382 296.077 129.456 290.036 127.358Z" fill="#2D2D2D"/>
<path id="Vector_44" d="M296.234 181.817C306.273 171.782 306.273 155.513 296.234 145.479C286.196 135.445 269.92 135.445 259.882 145.479C249.843 155.513 249.843 171.782 259.882 181.817C269.92 191.851 286.196 191.851 296.234 181.817Z" fill="#FFB6B6"/>
<path id="Vector_45" d="M251.048 147.486C256.922 151.533 263.894 153.687 271.028 153.658C268.483 155.422 265.586 156.613 262.536 157.15C272.022 159.184 281.825 159.239 291.332 157.312C293.445 156.973 295.485 156.273 297.36 155.242C298.295 154.721 299.109 154.008 299.75 153.151C300.391 152.294 300.845 151.312 301.081 150.268C301.713 146.661 298.9 143.383 295.978 141.174C291.503 137.844 286.344 135.549 280.873 134.456C275.402 133.363 269.757 133.5 264.345 134.856C260.812 135.769 257.272 137.311 254.977 140.148C252.682 142.984 252.002 147.357 254.189 150.278L251.048 147.486Z" fill="#2D2D2D"/>
</g>
<g id="Group 19">
<path id="Vector_46" d="M113.558 96.2117L114.368 95.1201L135.948 111.121C134.776 107.548 130.625 96.2216 123.82 91.7024C115.69 86.3036 109.971 87.983 106.855 92.6712C103.739 97.3594 104.406 103.281 112.535 108.68C119.426 113.256 131.702 112.62 135.284 112.32L113.558 96.2117Z" fill="#F2F2F2"/>
<path id="Vector_47" d="M438.252 8.60979L439.254 9.52869L421.09 29.3187C424.766 28.5244 436.468 25.5756 441.672 19.2805C447.889 11.76 446.813 5.89916 442.473 2.31363C438.132 -1.2719 432.171 -1.22441 425.954 6.29612C420.683 12.6709 420.039 24.9415 419.965 28.5333L438.252 8.60979Z" fill="#F2F2F2"/>
<path id="Vector_48" d="M145.299 219.912L146.301 220.831L128.136 240.621C131.813 239.827 143.514 236.878 148.718 230.583C154.936 223.063 153.86 217.202 149.519 213.616C145.178 210.031 139.218 210.078 133 217.599C127.73 223.974 127.086 236.244 127.012 239.836L145.299 219.912Z" fill="#F2F2F2"/>
<path id="Vector_49" d="M298.897 31.2878L300.074 31.9685L286.617 55.2151C290.035 53.6452 300.823 48.2382 304.543 40.9676C308.987 32.2817 306.669 26.7918 301.656 24.2287C296.643 21.6656 290.833 22.9998 286.388 31.6858C282.621 39.0486 284.645 51.1681 285.35 54.6911L298.897 31.2878Z" fill="#F2F2F2"/>
<path id="Vector_50" d="M424.643 176.686L425.82 177.366L412.363 200.613C415.781 199.043 426.568 193.636 430.288 186.366C434.733 177.68 432.415 172.19 427.402 169.627C422.388 167.064 416.579 168.398 412.134 177.084C408.367 184.447 410.391 196.566 411.096 200.089L424.643 176.686Z" fill="#F2F2F2"/>
</g>
</g>
</svg>
