<?xml-stylesheet type="text/css" href="./css/sitcom.css"?>

<svg width="600" height="426" viewBox="0 0 600 426" fill="none" xmlns="http://www.w3.org/2000/svg">
<g id="sitcom">
<g id="girl">
<path id="Vector_2" d="M372.225 279.847L371.405 297.067L410.765 310.187C410.765 310.187 408.715 288.457 409.945 286.407L372.225 279.847Z" fill="#FFB8B8"/>
<path id="Vector_3" d="M308.265 356.517L304.575 370.867H321.795V356.517H308.265Z" fill="#FFB8B8"/>
<path id="Vector_4" d="M397.645 360.332L405.435 363.078L409.535 352.783L402.565 347.292L397.645 360.332Z" fill="#A0616A"/>
<path id="Vector_5" d="M411.449 342.463C411.449 342.463 423.065 340.937 423.065 350.777C423.065 360.617 424.705 384.807 408.305 381.937C408.305 381.937 400.925 382.757 403.795 374.147C403.795 374.147 406.717 370.645 405.666 368.501C404.615 366.357 398.465 364.717 399.285 363.487C400.105 362.257 409.125 352.417 409.125 352.417L411.449 342.463Z" fill="#2D2D2D"/>
<path id="Vector_6" d="M411.585 308.137L371.405 294.197L368.945 304.037C368.945 304.037 308.675 269.187 304.985 292.967C304.985 292.967 301.705 312.237 306.625 337.657L307.035 358.157C307.035 358.157 317.285 360.617 322.205 358.567L322.615 336.427C322.615 336.427 326.715 322.077 324.665 311.007C324.665 311.007 355.415 335.197 369.355 338.067C369.355 338.067 320.565 375.787 326.305 387.678C332.045 399.568 339.015 401.618 348.035 399.568C354.251 398.155 382.08 375.714 398.781 361.897C404.506 357.207 409.051 351.241 412.053 344.477C415.055 337.713 416.43 330.339 416.068 322.947C415.769 317.509 414.514 312.237 411.585 308.137Z" fill="#2D2D2D"/>
<path id="Vector_7" d="M307.445 365.537C307.445 365.537 307.035 360.617 304.575 362.667C302.115 364.717 293.505 372.507 293.505 372.507C293.505 372.507 262.345 375.928 281.205 383.718C289.818 385.013 298.622 383.877 306.625 380.438C306.625 380.438 327.581 385.818 327.148 380.598C326.715 375.377 321.795 366.659 321.795 366.659C321.795 366.659 316.055 370.867 309.495 365.127L307.445 365.537Z" fill="#626262"/>
<path id="Vector_8" d="M388.625 232.697C397.003 232.697 403.795 225.905 403.795 217.527C403.795 209.149 397.003 202.357 388.625 202.357C380.247 202.357 373.455 209.149 373.455 217.527C373.455 225.905 380.247 232.697 388.625 232.697Z" fill="#FFB8B8"/>
<path id="Vector_9" d="M400.925 218.347C400.925 218.347 403.385 230.647 407.895 233.517L382.885 263.037L373.455 254.017L380.425 241.717C380.425 241.717 388.215 237.207 385.755 231.057L400.925 218.347Z" fill="#FFB8B8"/>
<path id="Vector_10" d="M409.945 234.747C409.945 234.747 427.985 238.437 430.035 250.327C432.085 262.217 427.985 283.947 427.985 283.947L419.375 347.907C419.375 347.907 418.965 374.968 408.305 370.458C397.645 365.948 411.175 345.447 411.175 345.447L414.865 305.267C414.865 305.267 416.505 271.237 413.225 267.137L400.105 263.037C400.105 263.037 402.975 235.977 409.945 234.747Z" fill="#FFB8B8"/>
<path id="Vector_11" d="M380.425 241.717C380.425 241.717 368.125 241.307 360.335 251.147C352.545 260.987 333.685 268.367 333.685 268.367L286.535 286.817C286.535 286.817 277.925 271.647 272.595 276.977C267.264 282.307 282.435 295.837 289.405 294.197C296.375 292.557 338.605 279.847 338.605 279.847L372.225 264.677L380.425 241.717Z" fill="#FFB8B8"/>
<path id="Vector_12" d="M407.259 232.54C407.259 232.54 391.495 253.607 384.525 253.197C377.555 252.787 382.249 240.33 382.249 240.33L377.329 241.56C377.329 241.56 370.585 254.427 369.765 255.247C369.765 255.247 359.925 271.237 370.995 274.927L371.405 283.537C371.405 283.537 398.875 282.307 410.765 288.457L413.225 267.137C413.225 267.137 397.645 259.347 406.255 244.177C406.255 244.177 409.309 236.23 412.589 235.41L407.259 232.54Z" fill="#25CB60"/>
<path id="Vector_13" opacity="0.1" d="M411.38 345.242L348.65 391.162C348.65 391.162 411.79 353.852 411.38 345.242Z" fill="#E0E0E0"/>
<path id="Vector_14" d="M404.41 218.962C405.064 218.962 405.594 217.769 405.594 216.297C405.594 214.825 405.064 213.632 404.41 213.632C403.756 213.632 403.226 214.825 403.226 216.297C403.226 217.769 403.756 218.962 404.41 218.962Z" fill="#FFB8B8"/>
<path id="Vector_15" d="M371.899 209.47C371.899 209.47 367.647 180.753 398.011 189.614C398.011 189.614 419.491 185.245 427.078 212.073L434.779 240.2L431.254 238.368L429.696 241.954L424.07 243.495L421.559 238.74L420.501 244.593L374.289 250.098C374.289 250.098 394.791 237.436 394.697 215.45L390.828 219.7L371.899 209.47Z" fill="#2D2D2D"/>
</g>
<g id="netflix">
<path id="path4155" d="M267.87 91.5021L267.753 156.958L267.636 222.414L262.259 207.219V207.18L255.285 352.898C262.143 372.223 265.805 382.548 265.844 382.587C265.883 382.626 269.779 382.86 274.493 383.094C288.754 383.795 306.442 385.314 319.884 386.99C323.001 387.379 325.651 387.574 325.846 387.418C326.04 387.262 326.079 320.637 326.04 239.324L325.923 91.5021H267.87V91.5021Z" fill="#B1060F"/>
<path id="path4157" d="M162.868 91.3073V239.285C162.868 320.676 162.946 387.34 163.062 387.457C163.179 387.574 168.205 387.068 174.284 386.405C180.362 385.743 188.738 384.886 192.907 384.535C199.297 383.99 218.466 382.782 220.648 382.743C221.311 382.743 221.35 379.431 221.427 320.053L221.544 257.363L226.181 270.454C226.882 272.48 227.116 273.104 227.817 275.091L234.791 129.412C233.311 125.243 234.09 127.425 232.415 122.672C226.726 106.58 221.895 92.9827 221.7 92.3593L221.311 91.2684H162.868L162.868 91.3073Z" fill="#B1060F"/>
<path id="slant" d="M162.868 91.3072L221.505 257.48V257.402L226.142 270.494C251.896 343.391 265.727 382.509 265.805 382.587C265.844 382.626 269.74 382.86 274.455 383.094C288.715 383.795 306.403 385.315 319.845 386.99C322.923 387.38 325.612 387.574 325.767 387.419L267.636 222.375V222.414L262.259 207.219C257 192.375 253.493 182.439 232.337 122.672C226.648 106.58 221.817 92.9826 221.622 92.3592L221.233 91.2682H192.05L162.868 91.3072Z" fill="#E50914"/>
</g>
<g id="plant">
<path id="leaf2" d="M84.9962 320.695C80.5783 337.027 65.4459 347.141 65.4459 347.141C65.4459 347.141 57.4764 330.777 61.8943 314.446C66.3122 298.114 81.4446 288 81.4446 288C81.4446 288 89.4141 304.364 84.9962 320.695Z" fill="#1DB954"/>
<path id="leaf1" d="M44.8054 320.695C49.2233 337.027 64.3557 347.141 64.3557 347.141C64.3557 347.141 72.3252 330.777 67.9073 314.446C63.4894 298.114 48.357 288 48.357 288C48.357 288 40.3875 304.364 44.8054 320.695Z" fill="#1DB954"/>
<path id="Vector_16" d="M51.2972 317.185C63.4201 328.987 64.9008 347.128 64.9008 347.128C64.9008 347.128 46.7264 346.135 34.6036 334.334C22.4807 322.533 21 304.392 21 304.392C21 304.392 39.1743 305.384 51.2972 317.185Z" fill="#2D2D2D"/>
<path id="Vector_17" d="M78.5044 317.185C66.3815 328.987 64.9008 347.128 64.9008 347.128C64.9008 347.128 83.0751 346.135 95.198 334.334C107.321 322.533 108.802 304.392 108.802 304.392C108.802 304.392 90.6272 305.384 78.5044 317.185Z" fill="#2D2D2D"/>
<path id="Vector_18" d="M86.9093 382.164H43.1631L35.5535 356.222C35.0898 354.641 35.0009 352.974 35.2937 351.352C35.5865 349.731 36.2531 348.2 37.2406 346.882C38.2281 345.563 39.5093 344.492 40.9826 343.755C42.4559 343.018 44.0807 342.634 45.7282 342.634H83.9975C85.634 342.634 87.2482 343.013 88.7139 343.741C90.1796 344.468 91.4568 345.526 92.4458 346.83C93.4347 348.133 94.1084 349.648 94.4141 351.256C94.7199 352.864 94.6494 354.52 94.2081 356.096L86.9093 382.164Z" fill="#2D2D2D"/>
</g>
</g>
</svg>
